<svg xmlns="http://www.w3.org/2000/svg" viewBox="0 0 64 64">
  <defs>
    <linearGradient id="olivineGrad" x1="0%" x2="100%" y1="0%" y2="100%">
      <stop offset="0%" stop-color="#0f172a" />
      <stop offset="100%" stop-color="#1e293b" />
    </linearGradient>
  </defs>
  <rect width="64" height="64" rx="14" fill="url(#olivineGrad)" />
  <circle cx="32" cy="32" r="16" fill="#22d3ee" opacity="0.22" />
  <path
    d="M21 36c0-6.6 4.7-11 11-11 4.3 0 7.4 1.8 9.5 4.8l-3.9 2.7c-1.4-1.9-3.1-2.9-5.6-2.9-3.7 0-6.2 2.4-6.2 6.4s2.5 6.4 6.2 6.4c2.5 0 4.2-1 5.6-2.9l3.9 2.7c-2.1 3-5.2 4.8-9.5 4.8-6.3 0-11-4.4-11-11z"
    fill="#22d3ee"
  />
</svg>
